<svg width="340" height="40" viewBox="0 0 340 40" fill="none" xmlns="http://www.w3.org/2000/svg">
<g clip-path="url(#clip0_0_295)">
<rect x="50" width="40" height="40" rx="3" fill="black"/>
<rect x="100.5" y="0.5" width="39" height="39" rx="2.5" stroke="#E5E5E5"/>
<rect x="150.5" y="0.5" width="39" height="39" rx="2.5" stroke="#E5E5E5"/>
<rect x="200.5" y="0.5" width="39" height="39" rx="2.5" stroke="#E5E5E5"/>
<rect x="250.5" y="0.5" width="39" height="39" rx="2.5" stroke="#E5E5E5"/>
<rect x="300.5" y="0.5" width="39" height="39" rx="2.5" stroke="#E5E5E5"/>
<rect x="0.5" y="0.5" width="39" height="39" rx="2.5" stroke="#E5E5E5"/>
<path d="M67.728 22.816H69.968V15.072L70.128 14.128L69.488 14.88L67.728 16.144L67.12 15.328L70.64 12.608H71.216V22.816H73.408V24H67.728V22.816Z" fill="white"/>
<path d="M123.136 15.344C123.136 15.9093 123.029 16.4907 122.816 17.088C122.613 17.6747 122.341 18.2667 122 18.864C121.669 19.4613 121.296 20.048 120.88 20.624C120.464 21.1893 120.048 21.728 119.632 22.24L118.848 22.928V22.992L119.872 22.816H123.36V24H116.992V23.536C117.227 23.2907 117.509 22.9867 117.84 22.624C118.171 22.2613 118.512 21.8613 118.864 21.424C119.227 20.976 119.579 20.5067 119.92 20.016C120.272 19.5147 120.587 19.008 120.864 18.496C121.152 17.984 121.381 17.4773 121.552 16.976C121.723 16.4747 121.808 16 121.808 15.552C121.808 15.0293 121.659 14.5973 121.36 14.256C121.061 13.904 120.608 13.728 120 13.728C119.595 13.728 119.2 13.8133 118.816 13.984C118.432 14.144 118.101 14.3307 117.824 14.544L117.296 13.632C117.669 13.312 118.112 13.0613 118.624 12.88C119.136 12.6987 119.685 12.608 120.272 12.608C120.731 12.608 121.136 12.6773 121.488 12.816C121.84 12.944 122.139 13.1307 122.384 13.376C122.629 13.6213 122.816 13.9147 122.944 14.256C123.072 14.5867 123.136 14.9493 123.136 15.344Z" fill="#171717"/>
<path d="M169.744 23.072C170.107 23.072 170.443 23.0187 170.752 22.912C171.061 22.8053 171.328 22.6507 171.552 22.448C171.776 22.2347 171.952 21.984 172.08 21.696C172.208 21.408 172.272 21.0933 172.272 20.752C172.272 20.0053 172.048 19.4507 171.6 19.088C171.163 18.7253 170.555 18.544 169.776 18.544H168.592V18.08L170.896 14.528L171.632 13.824L170.592 13.984H167.424V12.8H173.136V13.264L170.592 17.088L170.032 17.552V17.584L170.576 17.472C171.003 17.4827 171.397 17.5627 171.76 17.712C172.123 17.8507 172.437 18.0587 172.704 18.336C172.971 18.6027 173.179 18.928 173.328 19.312C173.477 19.6853 173.552 20.112 173.552 20.592C173.552 21.168 173.451 21.68 173.248 22.128C173.045 22.576 172.768 22.9547 172.416 23.264C172.075 23.5627 171.669 23.792 171.2 23.952C170.731 24.112 170.235 24.192 169.712 24.192C169.232 24.192 168.8 24.1547 168.416 24.08C168.032 24.0053 167.696 23.9093 167.408 23.792L167.744 22.656C167.989 22.7733 168.277 22.8747 168.608 22.96C168.949 23.0347 169.328 23.072 169.744 23.072Z" fill="#171717"/>
<path d="M223.264 24.264C223.264 23.976 223.344 23.752 223.504 23.592C223.675 23.4213 223.899 23.336 224.176 23.336C224.464 23.336 224.693 23.4213 224.864 23.592C225.035 23.752 225.12 23.976 225.12 24.264C225.12 24.5413 225.035 24.7653 224.864 24.936C224.693 25.1067 224.464 25.192 224.176 25.192C223.899 25.192 223.675 25.1067 223.504 24.936C223.344 24.7653 223.264 24.5413 223.264 24.264ZM219.2 24.264C219.2 23.976 219.28 23.752 219.44 23.592C219.611 23.4213 219.835 23.336 220.112 23.336C220.4 23.336 220.629 23.4213 220.8 23.592C220.971 23.752 221.056 23.976 221.056 24.264C221.056 24.5413 220.971 24.7653 220.8 24.936C220.629 25.1067 220.4 25.192 220.112 25.192C219.835 25.192 219.611 25.1067 219.44 24.936C219.28 24.7653 219.2 24.5413 219.2 24.264ZM215.136 24.264C215.136 23.976 215.216 23.752 215.376 23.592C215.547 23.4213 215.771 23.336 216.048 23.336C216.336 23.336 216.565 23.4213 216.736 23.592C216.907 23.752 216.992 23.976 216.992 24.264C216.992 24.5413 216.907 24.7653 216.736 24.936C216.565 25.1067 216.336 25.192 216.048 25.192C215.771 25.192 215.547 25.1067 215.376 24.936C215.216 24.7653 215.136 24.5413 215.136 24.264Z" fill="#171717"/>
<path d="M267.088 21.328C267.088 20.656 267.264 20.0747 267.616 19.584C267.968 19.0827 268.517 18.6293 269.264 18.224C268.997 18.064 268.747 17.8987 268.512 17.728C268.288 17.5467 268.085 17.344 267.904 17.12C267.733 16.896 267.595 16.6453 267.488 16.368C267.392 16.0907 267.344 15.7707 267.344 15.408C267.344 14.992 267.413 14.6133 267.552 14.272C267.701 13.9307 267.909 13.6373 268.176 13.392C268.453 13.1467 268.779 12.9547 269.152 12.816C269.536 12.6773 269.968 12.608 270.448 12.608C270.896 12.608 271.301 12.672 271.664 12.8C272.027 12.928 272.331 13.104 272.576 13.328C272.832 13.552 273.029 13.8187 273.168 14.128C273.307 14.4373 273.376 14.7787 273.376 15.152C273.376 15.76 273.237 16.2987 272.96 16.768C272.683 17.2267 272.224 17.68 271.584 18.128C271.861 18.288 272.123 18.464 272.368 18.656C272.624 18.848 272.843 19.0613 273.024 19.296C273.216 19.5307 273.365 19.7973 273.472 20.096C273.579 20.384 273.632 20.7147 273.632 21.088C273.632 21.5467 273.557 21.968 273.408 22.352C273.259 22.7253 273.04 23.0507 272.752 23.328C272.464 23.5947 272.112 23.808 271.696 23.968C271.28 24.1173 270.805 24.192 270.272 24.192C269.76 24.192 269.307 24.1173 268.912 23.968C268.517 23.8187 268.181 23.616 267.904 23.36C267.637 23.104 267.435 22.8053 267.296 22.464C267.157 22.112 267.088 21.7333 267.088 21.328ZM272.384 21.168C272.384 20.848 272.32 20.5707 272.192 20.336C272.064 20.0907 271.893 19.872 271.68 19.68C271.477 19.4773 271.243 19.296 270.976 19.136C270.709 18.976 270.432 18.8213 270.144 18.672C269.493 19.0347 269.029 19.44 268.752 19.888C268.475 20.336 268.336 20.7627 268.336 21.168C268.336 21.424 268.379 21.6693 268.464 21.904C268.549 22.1387 268.677 22.3413 268.848 22.512C269.019 22.6827 269.227 22.8213 269.472 22.928C269.728 23.024 270.021 23.072 270.352 23.072C270.619 23.072 270.875 23.0347 271.12 22.96C271.365 22.8747 271.579 22.7573 271.76 22.608C271.952 22.448 272.101 22.2507 272.208 22.016C272.325 21.7707 272.384 21.488 272.384 21.168ZM268.592 15.376C268.592 15.6747 268.651 15.9413 268.768 16.176C268.885 16.4 269.04 16.6027 269.232 16.784C269.435 16.9653 269.664 17.136 269.92 17.296C270.176 17.4453 270.443 17.5893 270.72 17.728C271.2 17.3547 271.552 16.9867 271.776 16.624C272.011 16.2613 272.128 15.8613 272.128 15.424C272.128 14.88 271.957 14.464 271.616 14.176C271.285 13.8773 270.885 13.728 270.416 13.728C270.128 13.728 269.872 13.776 269.648 13.872C269.424 13.968 269.232 14.0907 269.072 14.24C268.912 14.3893 268.789 14.5653 268.704 14.768C268.629 14.96 268.592 15.1627 268.592 15.376Z" fill="#171717"/>
<path d="M319 24L323 20L319 16" stroke="#171717" stroke-width="1.33333" stroke-linecap="round" stroke-linejoin="round"/>
<path opacity="0.4" d="M22 16L18 20L22 24" stroke="#171717" stroke-width="1.33333" stroke-linecap="round" stroke-linejoin="round"/>
</g>
<defs>
<clipPath id="clip0_0_295">
<rect width="340" height="40" fill="white"/>
</clipPath>
</defs>
</svg>
